<svg width="11" height="11" viewBox="0 0 11 11" fill="none" xmlns="http://www.w3.org/2000/svg">
<path d="M6.75985 3.80654H7.04533L7.859 2.99287L7.89897 2.64744C7.43285 2.23603 6.86954 1.95024 6.26226 1.81707C5.65498 1.68389 5.02378 1.70773 4.42827 1.88632C3.83276 2.06492 3.29261 2.39237 2.85885 2.83776C2.42508 3.28315 2.11201 3.83176 1.94922 4.43178C2.03986 4.39464 2.14027 4.38861 2.23471 4.41466L3.86205 4.14626C3.86205 4.14626 3.94484 4.00924 3.98767 4.01782C4.33635 3.63487 4.81822 3.39969 5.33463 3.36041C5.85105 3.32113 6.36294 3.48074 6.76553 3.80654H6.75985Z" fill="#F44336"/>
<path d="M9.01839 4.43191C8.83133 3.74321 8.44735 3.12406 7.91355 2.65039L6.77153 3.79241C7.00954 3.98687 7.20027 4.23285 7.32936 4.51177C7.45844 4.7907 7.5225 5.0953 7.51671 5.40259V5.60532C7.6509 5.60418 7.784 5.62963 7.90831 5.68019C8.03262 5.73076 8.14569 5.80544 8.24098 5.89994C8.33628 5.99443 8.41192 6.10685 8.46354 6.23073C8.51516 6.35461 8.54174 6.48748 8.54174 6.62168C8.54174 6.75589 8.51516 6.88876 8.46354 7.01264C8.41192 7.13651 8.33628 7.24894 8.24098 7.34343C8.14569 7.43792 8.03262 7.51261 7.90831 7.56317C7.784 7.61374 7.6509 7.63919 7.51671 7.63805H5.48394L5.28125 7.8436V9.06269L5.48394 9.26539H7.51671C8.08434 9.26981 8.63833 9.09141 9.09672 8.75657C9.5551 8.42174 9.89354 7.94825 10.062 7.40616C10.2304 6.86406 10.2199 6.28215 10.0319 5.74651C9.84398 5.21087 9.48859 4.74994 9.01839 4.43191Z" fill="#448AFF"/>
<path d="M3.44752 9.25387H5.48024V7.62653H3.44752C3.30269 7.62645 3.15958 7.59529 3.02783 7.53516L2.74234 7.62367L1.92295 8.4373L1.85156 8.72283C2.31104 9.06983 2.87173 9.2564 3.44752 9.25387Z" fill="#43A047"/>
<path d="M3.44823 3.97511C2.89746 3.9784 2.36146 4.15363 1.91511 4.47633C1.46876 4.79902 1.13434 5.25307 0.958561 5.77505C0.782782 6.29703 0.774422 6.86088 0.93465 7.38784C1.09488 7.91481 1.41569 8.37857 1.85228 8.71435L3.03141 7.53526C2.88155 7.46758 2.75035 7.36454 2.64906 7.235C2.54778 7.10546 2.47944 6.95327 2.44991 6.79151C2.42038 6.62975 2.43053 6.46324 2.47951 6.30626C2.52848 6.14929 2.61481 6.00654 2.73108 5.89026C2.84736 5.77399 2.9901 5.68766 3.14708 5.63869C3.30405 5.58972 3.47057 5.57956 3.63233 5.60909C3.79409 5.63863 3.94627 5.70697 4.07582 5.80825C4.20536 5.90953 4.3084 6.04073 4.37608 6.19059L5.55521 5.01146C5.30773 4.68792 4.98876 4.42601 4.62324 4.24623C4.25772 4.06644 3.85557 3.97365 3.44823 3.97511Z" fill="#FFC107"/>
</svg>
